<svg xmlns="http://www.w3.org/2000/svg" viewBox="0 0 64 64" role="img" aria-label="FieldCert">
  <g transform="translate(32,32) scale(0.95) translate(-32,-32)">
    <path d="M 32.0 2.0 A 6.91 6.91 0 0 1 43.48 4.28 A 6.91 6.91 0 0 1 53.21 10.79 A 6.91 6.91 0 0 1 59.72 20.52 A 6.91 6.91 0 0 1 62.0 32.0 A 6.91 6.91 0 0 1 59.72 43.48 A 6.91 6.91 0 0 1 53.21 53.21 A 6.91 6.91 0 0 1 43.48 59.72 A 6.91 6.91 0 0 1 32.0 62.0 A 6.91 6.91 0 0 1 20.52 59.72 A 6.91 6.91 0 0 1 10.79 53.21 A 6.91 6.91 0 0 1 4.28 43.48 A 6.91 6.91 0 0 1 2.0 32.0 A 6.91 6.91 0 0 1 4.28 20.52 A 6.91 6.91 0 0 1 10.79 10.79 A 6.91 6.91 0 0 1 20.52 4.28 A 6.91 6.91 0 0 1 32.0 2.0 Z" fill="none" stroke="#157a49" stroke-width="2.4"/>
    <path d="M 32.0 6.5 A 5.87 5.87 0 0 1 41.76 8.44 A 5.87 5.87 0 0 1 50.03 13.97 A 5.87 5.87 0 0 1 55.56 22.24 A 5.87 5.87 0 0 1 57.5 32.0 A 5.87 5.87 0 0 1 55.56 41.76 A 5.87 5.87 0 0 1 50.03 50.03 A 5.87 5.87 0 0 1 41.76 55.56 A 5.87 5.87 0 0 1 32.0 57.5 A 5.87 5.87 0 0 1 22.24 55.56 A 5.87 5.87 0 0 1 13.97 50.03 A 5.87 5.87 0 0 1 8.44 41.76 A 5.87 5.87 0 0 1 6.5 32.0 A 5.87 5.87 0 0 1 8.44 22.24 A 5.87 5.87 0 0 1 13.97 13.97 A 5.87 5.87 0 0 1 22.24 8.44 A 5.87 5.87 0 0 1 32.0 6.5 Z" fill="#157a49"/>
    <path d="M 21.5 33.5 L 28.5 40.5 L 42.5 24.5" fill="none" stroke="#fff" stroke-width="5.5" stroke-linecap="round" stroke-linejoin="round"/>
  </g>
</svg>
